<svg width="20" height="20" viewBox="0 0 20 20" fill="none" xmlns="http://www.w3.org/2000/svg">
<path d="M10 20C9.90105 20 9.80433 19.9866 9.70986 19.9599C9.61541 19.9331 9.5303 19.8841 9.45455 19.8127C8.78788 19.2956 8.07905 18.8899 7.32807 18.5956C6.57708 18.3013 5.80106 18.1542 5 18.1542C4.36364 18.1542 3.73864 18.2523 3.125 18.4485C2.51136 18.6446 1.92424 18.9211 1.36364 19.2777C1.04545 19.4739 0.738636 19.465 0.443182 19.251C0.147727 19.037 0 18.7249 0 18.3147V5.42095C0 5.22478 0.0416667 5.03752 0.125 4.85919C0.208333 4.68085 0.333333 4.5471 0.5 4.45793C1.19697 4.02992 1.92424 3.70891 2.68182 3.49491C3.43939 3.2809 4.21212 3.1739 5 3.1739C5.87879 3.1739 6.73864 3.30765 7.57955 3.57516C8.42045 3.84267 9.22727 4.24392 10 4.77894V18.3147C10.7727 17.7262 11.5833 17.2848 12.4318 16.9906C13.2803 16.6963 14.1364 16.5492 15 16.5492C15.5455 16.5492 16.1402 16.6116 16.7841 16.7364C17.428 16.8613 18.0455 17.1199 18.6364 17.5122V4.00317C18.7862 4.07005 18.9334 4.14027 19.0783 4.21383C19.2231 4.28739 19.3636 4.36876 19.5 4.45793C19.6515 4.56493 19.7727 4.70472 19.8636 4.8773C19.9545 5.04989 20 5.23111 20 5.42095V18.3147C20 18.7249 19.8523 19.037 19.5568 19.251C19.2614 19.465 18.9545 19.4739 18.6364 19.2777C18.0758 18.9211 17.4886 18.6446 16.875 18.4485C16.2614 18.2523 15.6364 18.1542 15 18.1542C14.1989 18.1542 13.4229 18.3013 12.6719 18.5956C11.9209 18.8899 11.2121 19.2956 10.5455 19.8127C10.4697 19.8841 10.3846 19.9331 10.2901 19.9599C10.1957 19.9866 10.099 20 10 20ZM11.9318 15.2384C11.8106 15.3454 11.6856 15.3677 11.5568 15.3053C11.428 15.2429 11.3636 15.1225 11.3636 14.9441V6.54236C11.3636 6.5081 11.3939 6.41964 11.4545 6.27697L16.6818 0.124339C16.7879 -0.000497203 16.9129 -0.0313319 17.0568 0.0318351C17.2008 0.0949842 17.2727 0.214987 17.2727 0.391844V9.59403C17.2727 9.6297 17.2348 9.72779 17.1591 9.88829L11.9318 15.2384ZM8.63636 17.5122V5.76871C8.12121 5.42987 7.52273 5.18019 6.84091 5.01969C6.15909 4.85919 5.54545 4.77894 5 4.77894C4.28788 4.77894 3.625 4.8681 3.01136 5.04644C2.39773 5.22478 1.84848 5.45245 1.36364 5.72946V17.5122C1.89394 17.209 2.46591 16.9727 3.07955 16.8033C3.69318 16.6339 4.33712 16.5492 5.01136 16.5492C5.68561 16.5492 6.32576 16.6339 6.93182 16.8033C7.53788 16.9727 8.10606 17.209 8.63636 17.5122Z" fill="url(#paint0_linear_5_430)"/>
<defs>
<linearGradient id="paint0_linear_5_430" x1="17.6667" y1="3.33333" x2="-1.99789e-06" y2="20" gradientUnits="userSpaceOnUse">
<stop stop-color="#DBBF18"/>
<stop offset="1" stop-color="#FFEA6C"/>
</linearGradient>
</defs>
</svg>
